<svg width="218" height="113" viewBox="0 0 218 113" fill="none" xmlns="http://www.w3.org/2000/svg">
<path d="M24.765 18.2973C27.8594 7.4669 37.7585 0 49.0222 0C65.7831 0 77.884 16.0425 73.2795 32.1585L72.7026 34.1775C69.6082 45.0079 59.7091 52.4748 48.4454 52.4748C31.6845 52.4748 19.5836 36.4323 24.1882 20.3163L24.765 18.2973Z" fill="white"/>
<path d="M84.5441 19.0294C87.7623 7.76568 98.0575 0 109.772 0H182.636C200.068 0 212.653 16.6845 207.864 33.4454C204.646 44.7091 194.351 52.4748 182.636 52.4748H109.772C92.3404 52.4748 79.7553 35.7903 84.5441 19.0294Z" fill="white"/>
<path d="M9.55582 79.0011C12.774 67.7374 23.0692 59.9717 34.7837 59.9717H167.619C185.051 59.9717 197.636 76.6562 192.847 93.4171C189.629 104.681 179.334 112.446 167.619 112.446H34.7837C17.3521 112.446 4.767 95.762 9.55582 79.0011Z" fill="white"/>
</svg>
