<svg width="218" height="113" viewBox="0 0 218 113" fill="none" xmlns="http://www.w3.org/2000/svg">
<path d="M24.765 18.2974C27.8594 7.46702 37.7585 0.00012207 49.0222 0.00012207C65.7831 0.00012207 77.884 16.0427 73.2795 32.1587L72.7026 34.1777C69.6082 45.008 59.7091 52.4749 48.4454 52.4749C31.6845 52.4749 19.5836 36.4324 24.1882 20.3164L24.765 18.2974Z" fill="white"/>
<path d="M84.5441 19.0296C87.7623 7.7658 98.0575 0.00012207 109.772 0.00012207H182.636C200.068 0.00012207 212.653 16.6846 207.864 33.4455C204.646 44.7093 194.351 52.4749 182.636 52.4749H109.772C92.3404 52.4749 79.7553 35.7904 84.5441 19.0296Z" fill="white"/>
<path d="M9.55582 79.0014C12.774 67.7376 23.0692 59.9719 34.7837 59.9719H167.619C185.051 59.9719 197.636 76.6564 192.847 93.4173C189.629 104.681 179.334 112.447 167.619 112.447H34.7837C17.3521 112.447 4.767 95.7622 9.55582 79.0014Z" fill="white"/>
</svg>
